<svg width="510" height="563" viewBox="0 0 510 563" fill="none" xmlns="http://www.w3.org/2000/svg">
<path d="M343.793 55.2558C401.181 46.1195 443.45 59.8646 465.174 89.8158C486.89 119.755 487.965 165.781 463.14 220.812C438.315 275.843 392.334 329.36 338.155 371.382C283.955 413.42 221.785 443.792 164.396 452.929C107.008 462.065 64.7393 448.32 43.0151 418.369C21.2995 388.429 20.224 342.403 45.0492 287.373C69.8745 232.342 115.855 178.824 170.034 136.803C224.234 94.7642 286.404 64.3922 343.793 55.2558Z" stroke="#1B1B1D" stroke-width="3"/>
<path d="M343.792 85.2558C401.18 76.1195 443.449 89.8646 465.174 119.816C486.889 149.755 487.965 195.781 463.139 250.812C438.314 305.843 392.333 359.36 338.155 401.382C283.955 443.42 221.784 473.792 164.396 482.929C107.008 492.065 64.7389 478.32 43.0146 448.369C21.299 418.429 20.2235 372.403 45.0488 317.373C69.874 262.342 115.855 208.824 170.033 166.803C224.233 124.764 286.404 94.3922 343.792 85.2558Z" stroke="#1B1B1D" stroke-width="3"/>
</svg>
